# xmcd CD database file
#
# Track frame offsets:
#	150
#	19882
#	32067
#	48402
#	62957
#	77165
#	94570
#	110755
#	129507
#	146947
#	163620
#	179745
#	193970
#	211335
#	221790
#	246377
#	266020
#	280630
#
# Disc length: 3909 seconds
#
# Revision: 0
# Processed by: cddbd v1.5.2PL0 Copyright (c) Steve Scherf et al.
# Submitted via: CDex 1.70beta2
#
DISCID=1f0f4312
DTITLE=Duke Heitger's Big Four - Prince Of Wails
DYEAR=2001
DGENRE=Jazz
TTITLE0=There Ain't No Land Like Dixieland To Me
TTITLE1=Too Late
TTITLE2=If I could Be With You (One Hour To-Night)
TTITLE3=Eccentric
TTITLE4=Prince Of Wails
TTITLE5=Get Out of Here
TTITLE6=When You're Similing (he Whole World Smiles With You)
TTITLE7=Words
TTITLE8=Pleasure Mad
TTITLE9=Goody Goody
TTITLE10=West End Blues
TTITLE11=Static Strut
TTITLE12=You're Driving e Crazy (What Did I Do?)
TTITLE13=Strut Miss Lizzie
TTITLE14=What Ya Want Me To Do?
TTITLE15=My Honey's Lovin' Arms
TTITLE16=Blame It On The Blues
TTITLE17=I'm Going' Huntin'
EXTD=YEAR: 2001
EXTT0=
EXTT1=
EXTT2=
EXTT3=
EXTT4=
EXTT5=
EXTT6=
EXTT7=
EXTT8=
EXTT9=
EXTT10=
EXTT11=
EXTT12=
EXTT13=
EXTT14=
EXTT15=
EXTT16=
EXTT17=
PLAYORDER=
